<svg xmlns="http://www.w3.org/2000/svg" width="25" height="20" viewBox="0 0 25 20"><g><g><g><path fill="#ad7a5d" d="M24.577 2.615a9.871 9.871 0 0 1-2.828.775A4.94 4.94 0 0 0 23.915.665a9.84 9.84 0 0 1-3.127 1.195 4.924 4.924 0 0 0-8.39 4.49 13.98 13.98 0 0 1-10.15-5.144 4.907 4.907 0 0 0-.666 2.476c0 1.707.87 3.215 2.19 4.098a4.907 4.907 0 0 1-2.23-.616v.062a4.927 4.927 0 0 0 3.95 4.828 4.957 4.957 0 0 1-2.225.085 4.927 4.927 0 0 0 4.6 3.42A9.883 9.883 0 0 1 .578 17.6a13.929 13.929 0 0 0 7.547 2.213c9.058 0 14.011-7.504 14.011-14.011 0-.212-.006-.426-.015-.636a10.003 10.003 0 0 0 2.457-2.549z"/></g></g></g></svg>