<svg xmlns="http://www.w3.org/2000/svg" width="24" height="25" viewBox="0 0 24 25"><g><g><g/><g><path fill="#ad7a5d" d="M9 12.657a3 3 0 1 0 6 0 3 3 0 0 0-6 0zm8.25-4a1.25 1.25 0 1 1 0-2.5 1.25 1.25 0 0 1 0 2.5zm-.25 4a5 5 0 1 1-10 0 5 5 0 0 1 10 0zm-9.122-9.94c-1.066.05-1.79.217-2.428.465a4.897 4.897 0 0 0-1.772 1.153 4.88 4.88 0 0 0-1.153 1.772c-.248.638-.415 1.362-.465 2.428C2.01 9.601 2 9.94 2 12.657c0 2.717.013 3.056.06 4.122.05 1.065.217 1.791.465 2.428.25.668.644 1.272 1.153 1.772a4.89 4.89 0 0 0 1.772 1.153c.638.247 1.363.415 2.428.465 1.066.05 1.405.06 4.122.06 2.717 0 3.056-.013 4.122-.06 1.065-.05 1.791-.218 2.428-.465a4.915 4.915 0 0 0 1.772-1.153c.51-.5.903-1.104 1.153-1.772.247-.638.415-1.363.465-2.428.05-1.066.06-1.405.06-4.122 0-2.717-.013-3.056-.06-4.122-.05-1.065-.218-1.79-.465-2.428a4.908 4.908 0 0 0-1.153-1.772 4.876 4.876 0 0 0-1.772-1.153c-.638-.248-1.363-.415-2.428-.465-1.066-.05-1.405-.06-4.122-.06-2.717 0-3.056.013-4.122.06z"/></g></g></g></svg>