<svg xmlns="http://www.w3.org/2000/svg" width="24" height="25" viewBox="0 0 24 25"><g><g><g/><g><path fill="#ad7a5d" d="M19.666 3.657c.734 0 1.334.58 1.334 1.297V20.36c0 .717-.6 1.297-1.334 1.297H4.328c-.734 0-1.328-.58-1.328-1.297V4.954c0-.717.593-1.297 1.329-1.297zM8.34 18.997v-8.59H5.666v8.59zM7.003 9.231a1.548 1.548 0 1 0 0-3.096 1.548 1.548 0 0 0 0 3.096zm11.333 9.764v-4.715c0-2.313-.5-4.09-3.2-4.09-1.3 0-2.17.712-2.528 1.386h-.035v-1.17h-2.56v8.59h2.666v-4.25c0-1.122.212-2.206 1.601-2.206 1.37 0 1.39 1.282 1.39 2.278v4.177z"/></g></g></g></svg>