<svg xmlns="http://www.w3.org/2000/svg" width="80" height="81" viewBox="0 0 80 81"><g><g><g><path fill="#fff" d="M21.25 28.468c6.462 0 11.719 5.257 11.719 11.719 0 6.461-5.257 11.719-11.719 11.719S9.531 46.648 9.531 40.186c0-6.461 5.257-11.718 11.719-11.718zM4.844 40.187c0 9.046 7.36 16.406 16.406 16.406s16.406-7.36 16.406-16.406c0-9.047-7.36-16.406-16.406-16.406S4.844 31.14 4.844 40.187z"/></g><g><path fill="#fff" d="M21.25 47.218a7.04 7.04 0 0 0 7.031-7.031h-4.687a2.346 2.346 0 0 1-2.344 2.344 2.346 2.346 0 0 1-2.344-2.344H14.22a7.04 7.04 0 0 0 7.031 7.031z"/></g><g><path fill="#fff" d="M4.688 75.5c0-7.708 6.51-14.22 14.218-14.22 7.754 0 14.063 6.38 14.063 14.22zm32.968 0c0-10.426-8.411-18.907-18.75-18.907C8.562 56.593 0 65.115 0 75.499v4.688h37.656z"/></g><g><path fill="#fff" d="M47.031 75.5c0-7.84 6.309-14.22 14.063-14.22 7.707 0 14.218 6.512 14.218 14.22zm14.063-18.907c-10.339 0-18.75 8.481-18.75 18.906v4.688H80v-4.688c0-10.344-8.522-18.906-18.906-18.906z"/></g><g><path fill="#fff" d="M37.656.187h4.688v14.219h-4.688z"/></g><g transform="rotate(-30 24 11.5)"><path fill="#fff" d="M21.25 4.739h4.687V18.8h-4.688z"/></g><g transform="rotate(-60 56 11.5)"><path fill="#fff" d="M49.375 9.428h14.062v4.688H49.375z"/></g><g><path fill="#fff" d="M58.75 28.468c6.462 0 11.719 5.257 11.719 11.719 0 6.461-5.257 11.719-11.719 11.719s-11.719-5.258-11.719-11.72c0-6.461 5.257-11.718 11.719-11.718zm0 28.125c9.046 0 16.406-7.36 16.406-16.406 0-9.047-7.36-16.406-16.406-16.406s-16.406 7.36-16.406 16.406 7.36 16.406 16.406 16.406z"/></g><g><path fill="#fff" d="M58.75 47.218a7.04 7.04 0 0 0 7.031-7.031h-4.687a2.346 2.346 0 0 1-2.344 2.344 2.346 2.346 0 0 1-2.344-2.344H51.72a7.04 7.04 0 0 0 7.031 7.031z"/></g></g></g></svg>