<svg xmlns="http://www.w3.org/2000/svg" width="80" height="83" viewBox="0 0 80 83"><g><g><g><path fill="#fff" d="M14.396 73.14V56.836a14.457 14.457 0 0 1 9.598-3.613c6.983 0 10.647 4.72 11.003 4.97h12.991c3.128 0 5.795 2.006 6.786 4.799H28.793v4.798h30.275l6.985-13.955A7.2 7.2 0 0 1 73.38 49.9L61.76 73.14zm-4.798 4.248h-4.8V58.193h4.8zM80 47.392l-2.144-1.074c-5.928-2.967-13.13-.566-16.095 5.37l-3.645 7.284c-2.13-3.35-5.873-5.578-10.128-5.578h-11.04a19.226 19.226 0 0 0-12.954-4.97 19.224 19.224 0 0 0-12.953 4.97H0v28.793h14.396v-4.248h50.33z"/></g><g><path fill="#fff" d="M40.79 5.086c6.615 0 11.997 5.382 11.997 11.997 0 4.757-2.906 8.265-5.47 11.36-1.504 1.815-2.947 3.56-3.662 5.436h-5.73c-.715-1.877-2.158-3.62-3.662-5.436-2.564-3.095-5.47-6.603-5.47-11.36 0-6.615 5.382-11.997 11.997-11.997zm0 38.39a2.402 2.402 0 0 1-2.4-2.4v-2.399h4.8v2.4c0 1.323-1.077 2.4-2.4 2.4zm-7.198-7.198v4.799c0 3.969 3.229 7.198 7.198 7.198 3.97 0 7.198-3.229 7.198-7.198v-4.799c0-1.123 1.538-2.979 3.025-4.773 2.774-3.35 6.573-7.935 6.573-14.422C57.586 7.822 50.05.287 40.79.287S23.994 7.822 23.994 17.083c0 6.487 3.8 11.073 6.574 14.422 1.486 1.794 3.024 3.65 3.024 4.773z"/></g><g><path fill="#fff" d="M38.39 29.08h4.8v-6.205l4.096-4.096-3.394-3.393-3.102 3.102-3.102-3.102-3.393 3.393 4.096 4.096z"/></g><g><path fill="#fff" d="M9.598 15.643h9.597v4.799H9.598z"/></g><g><path fill="#fff" d="M62.385 15.643h9.597v4.799h-9.597z"/></g><g transform="rotate(-30 18 31)"><path fill="#fff" d="M13.133 28.84h9.598v4.798h-9.598z"/></g><g transform="rotate(-30.463 63.5 5)"><path fill="#fff" d="M58.824 2.391h9.643v4.8h-9.643z"/></g><g transform="rotate(-59.537 18 5)"><path fill="#fff" d="M15.536-.018h4.8v9.643h-4.8z"/></g><g transform="rotate(-60 63.5 31)"><path fill="#fff" d="M61.247 26.442h4.8v9.598h-4.8z"/></g></g></g></svg>