<svg xmlns="http://www.w3.org/2000/svg" width="80" height="89" viewBox="0 0 80 89"><g><g><g><g><g><path fill="#fff" d="M74.845 31.48a54.778 54.778 0 0 1-9.812 31.362A54.765 54.765 0 0 1 40 82.674a54.767 54.767 0 0 1-25.033-19.832A54.778 54.778 0 0 1 5.155 31.48V19.294c7.065-1.11 12.661-6.706 13.77-13.77h42.15c1.109 7.064 6.705 12.66 13.77 13.77V31.48zm2.577-17.141c-6.282 0-11.393-5.111-11.393-11.393V.368H13.97v2.578c0 6.282-5.111 11.393-11.393 11.393H0V31.48a59.91 59.91 0 0 0 10.73 34.3A59.914 59.914 0 0 0 39.098 87.85l.903.338.903-.338A59.91 59.91 0 0 0 69.27 65.781 59.91 59.91 0 0 0 80 31.48V14.338z"/></g></g></g><g><g><g><path fill="#fff" d="M24.853 46.642l3.645-3.646 5.942 5.942 17.062-17.062 3.645 3.645L34.44 56.229zm26.649-22.057L34.439 41.647l-5.941-5.942-10.936 10.937 16.877 16.877 27.999-27.998z"/></g></g></g></g></g></svg>